# xmcd
#
# Track frame offsets: 
#        150
#        22296
#        39228
#        57817
#        74037
#        91409
#        108789
#        127839
#        145374
#        164020
#        184703
#        201783
#        220558
#        237459
#
# Disc length: 3410 seconds
#
# Revision: 2
# Processed by: cddbd v1.5.2PL0 Copyright (c) Steve Scherf et al.
# Submitted via: ExactAudioCopy v1.3
#
DISCID=ca0d500e
DTITLE=Tony Cetinski - Opet Si Pobijedila
DYEAR=2012
DGENRE=Pop_Trash
TTITLE0=Opet Si Pobijedila
TTITLE1=Kriv
TTITLE2=Od Jednog Poljupca
TTITLE3=Skriveno Mjesto
TTITLE4=Zbogom Odlazim
TTITLE5=Jednom U Zivotu
TTITLE6=Ne Daj
TTITLE7=Zar Malo To Je
TTITLE8=K'o Da Je Sudbina Htjela
TTITLE9=To Ljubav Je
TTITLE10=Hodam
TTITLE11=Usne Ledene
TTITLE12=Ljubav Tjera Krv U Venama
TTITLE13=Ti Si Znala
EXTD=
EXTT0=
EXTT1=
EXTT2=
EXTT3=
EXTT4=
EXTT5=
EXTT6=
EXTT7=
EXTT8=
EXTT9=
EXTT10=
EXTT11=
EXTT12=
EXTT13=
PLAYORDER=
